<?xml version="1.0" standalone="no"?>
<!DOCTYPE svg PUBLIC "-//W3C//DTD SVG 20010904//EN"
 "http://www.w3.org/TR/2001/REC-SVG-20010904/DTD/svg10.dtd">
<svg version="1.0" xmlns="http://www.w3.org/2000/svg"
 width="200.000000pt" height="200.000000pt" viewBox="0 0 200.000000 200.000000"
 preserveAspectRatio="xMidYMid meet">
<metadata>
Created by potrace 1.16, written by Peter Selinger 2001-2019
</metadata>
<g transform="translate(0.000000,200.000000) scale(0.100000,-0.100000)"
fill="#000000" stroke="none">
<path d="M457 1316 c-97 -26 -167 -114 -167 -208 0 -33 4 -46 13 -44 6 3 24 7
40 10 16 4 27 13 27 23 0 9 9 36 21 60 39 80 140 106 210 54 32 -24 51 -20 73
14 15 23 14 26 -7 45 -49 47 -136 66 -210 46z"/>
<path d="M522 1148 c-20 -20 -13 -31 17 -25 76 16 82 15 33 -1 -29 -10 -53
-22 -53 -28 1 -5 31 -11 68 -14 36 -3 68 -9 70 -15 5 -17 -36 -74 -69 -96
l-33 -21 74 6 c41 4 80 11 88 17 29 25 45 153 21 177 -16 16 -200 16 -216 0z"/>
<path d="M820 1015 l0 -145 40 0 40 0 0 145 0 145 -40 0 -40 0 0 -145z"/>
<path d="M992 1144 c-18 -13 -22 -25 -22 -73 0 -84 11 -91 143 -91 l107 0 0
-25 0 -25 -125 0 c-118 0 -125 -1 -125 -20 0 -32 32 -40 164 -40 118 0 126 1
140 22 22 32 20 90 -4 121 -20 25 -26 26 -128 29 -102 3 -107 4 -110 26 -3 20
1 22 40 22 37 0 49 6 78 35 l34 35 -85 0 c-60 0 -91 -4 -107 -16z"/>
</g>
</svg>
